<?xml version="1.0" encoding="UTF-8" standalone="no"?>
<!-- Created with Inkscape (http://www.inkscape.org/) -->

<svg
   width="1000"
   height="1000"
   viewBox="0 0 264.58333 264.58333"
   version="1.1"
   id="svg515"
   inkscape:version="1.2.2 (732a01da63, 2022-12-09)"
   sodipodi:docname="logofinalq.svg"
   inkscape:export-filename="logofinalq.png"
   inkscape:export-xdpi="96"
   inkscape:export-ydpi="96"
   xmlns:inkscape="http://www.inkscape.org/namespaces/inkscape"
   xmlns:sodipodi="http://sodipodi.sourceforge.net/DTD/sodipodi-0.dtd"
   xmlns:xlink="http://www.w3.org/1999/xlink"
   xmlns="http://www.w3.org/2000/svg"
   xmlns:svg="http://www.w3.org/2000/svg">
  <sodipodi:namedview
     id="namedview517"
     pagecolor="#ffffff"
     bordercolor="#000000"
     borderopacity="0.25"
     inkscape:showpageshadow="2"
     inkscape:pageopacity="0.0"
     inkscape:pagecheckerboard="0"
     inkscape:deskcolor="#d1d1d1"
     inkscape:document-units="mm"
     showgrid="false"
     inkscape:zoom="0.71624579"
     inkscape:cx="211.51957"
     inkscape:cy="517.28053"
     inkscape:window-width="1920"
     inkscape:window-height="991"
     inkscape:window-x="-9"
     inkscape:window-y="-9"
     inkscape:window-maximized="1"
     inkscape:current-layer="layer1" />
  <defs
     id="defs512">
    <linearGradient
       inkscape:collect="always"
       xlink:href="#linearGradient11194"
       id="linearGradient11196"
       x1="-113.08121"
       y1="111.25331"
       x2="-62.381721"
       y2="135.74181"
       gradientUnits="userSpaceOnUse" />
    <linearGradient
       inkscape:collect="always"
       id="linearGradient11194">
      <stop
         style="stop-color:#7a5bff;stop-opacity:1;"
         offset="0"
         id="stop11190" />
      <stop
         style="stop-color:#39e921;stop-opacity:1;"
         offset="1"
         id="stop11192" />
    </linearGradient>
    <linearGradient
       inkscape:collect="always"
       xlink:href="#linearGradient11184"
       id="linearGradient11186"
       x1="-115.4552"
       y1="131.91663"
       x2="-68.38472"
       y2="123.43301"
       gradientUnits="userSpaceOnUse" />
    <linearGradient
       inkscape:collect="always"
       id="linearGradient11184">
      <stop
         style="stop-color:#ffff00;stop-opacity:1;"
         offset="0"
         id="stop11180" />
      <stop
         style="stop-color:#ff006c;stop-opacity:1;"
         offset="1"
         id="stop11182" />
    </linearGradient>
    <linearGradient
       inkscape:collect="always"
       xlink:href="#linearGradient9618"
       id="linearGradient9620"
       x1="-117.29579"
       y1="127.96571"
       x2="-84.959335"
       y2="123.51094"
       gradientUnits="userSpaceOnUse" />
    <linearGradient
       inkscape:collect="always"
       id="linearGradient9618">
      <stop
         style="stop-color:#40b66c;stop-opacity:1;"
         offset="0"
         id="stop9614" />
      <stop
         style="stop-color:#2961ac;stop-opacity:1;"
         offset="1"
         id="stop9616" />
    </linearGradient>
    <linearGradient
       inkscape:collect="always"
       xlink:href="#linearGradient8504"
       id="linearGradient8506"
       x1="-139.21735"
       y1="123.34958"
       x2="-99.965286"
       y2="125.21374"
       gradientUnits="userSpaceOnUse" />
    <linearGradient
       inkscape:collect="always"
       id="linearGradient8504">
      <stop
         style="stop-color:#5f266c;stop-opacity:1;"
         offset="0"
         id="stop8500" />
      <stop
         style="stop-color:#e4266c;stop-opacity:1;"
         offset="1"
         id="stop8502" />
    </linearGradient>
    <linearGradient
       inkscape:collect="always"
       xlink:href="#linearGradient8440"
       id="linearGradient8442"
       x1="-139.27628"
       y1="126.05936"
       x2="-121.02127"
       y2="126.05936"
       gradientUnits="userSpaceOnUse" />
    <linearGradient
       inkscape:collect="always"
       id="linearGradient8440">
      <stop
         style="stop-color:#ff266c;stop-opacity:1;"
         offset="0"
         id="stop8436" />
      <stop
         style="stop-color:#ff986c;stop-opacity:1;"
         offset="1"
         id="stop8438" />
    </linearGradient>
  </defs>
  <g
     inkscape:label="Layer 1"
     inkscape:groupmode="layer"
     id="layer1">
    <g
       id="g757"
       transform="matrix(2.7115069,0,0,2.7115069,-232.31237,-169.51926)">
      <path
         id="path6746"
         style="fill:#ff8e58;fill-opacity:1;stroke-width:0.576015;stop-color:#000000"
         d="m 170.25034,65.427523 a 7.3764332,7.3764332 0 0 0 -7.37641,7.376513 7.3764332,7.3764332 0 0 0 7.37641,7.376413 7.3764332,7.3764332 0 0 0 7.37641,-7.376413 7.3764332,7.3764332 0 0 0 -7.37641,-7.376513 z m 0,4.066686 a 3.309789,3.309789 0 0 1 3.30982,3.309827 3.309789,3.309789 0 0 1 -3.30982,3.309726 3.309789,3.309789 0 0 1 -3.30983,-3.309726 3.309789,3.309789 0 0 1 3.30983,-3.309827 z" />
      <g
         id="g11206"
         transform="translate(233.12066,-4.7490897)">
        <path
           id="path6526"
           style="fill:#ffffff;stroke-width:3;stop-color:#000000"
           d="m -100.79953,84.93125 a 38.417912,38.417912 0 0 0 -38.41781,38.41833 38.417912,38.417912 0 0 0 38.41781,38.41781 h 38.417808 c -4.181914,-10.22917 -2.748305,-19.42691 -1.297595,-28.62151 a 38.417912,38.417912 0 0 0 1.297595,-9.7963 38.417912,38.417912 0 0 0 -38.417808,-38.41833 z m 0,21.1801 a 17.238031,17.238031 0 0 1 17.238222,17.23823 17.238031,17.238031 0 0 1 -17.238222,17.2377 17.238031,17.238031 0 0 1 -17.23823,-17.2377 17.238031,17.238031 0 0 1 17.23823,-17.23823 z" />
        <path
           id="path11188"
           style="fill:url(#linearGradient11196);fill-opacity:1;stroke-width:3;stop-color:#000000"
           d="m -100.79953,84.93125 a 38.417912,38.417912 0 0 0 -38.41781,38.41833 38.417912,38.417912 0 0 0 38.41781,38.41781 h 38.417808 c -4.181914,-10.22917 -2.748305,-19.42691 -1.297595,-28.62151 a 38.417912,38.417912 0 0 0 1.297595,-9.7963 38.417912,38.417912 0 0 0 -38.417808,-38.41833 z m 0,21.1801 a 17.238031,17.238031 0 0 1 17.238222,17.23823 17.238031,17.238031 0 0 1 -17.238222,17.2377 17.238031,17.238031 0 0 1 -17.23823,-17.2377 17.238031,17.238031 0 0 1 17.23823,-17.23823 z" />
        <path
           style="fill:url(#linearGradient11186);fill-opacity:1;stroke:none;stroke-width:3;stroke-dasharray:none;stroke-opacity:1;stop-color:#000000"
           d="m -89.964084,109.9424 c 6.322865,-3.61157 23.489387,11.4593 18.968595,-10.83471 -6.53776,-7.9153 -14.317032,-11.700016 -21.875528,-13.343098 -7.569343,-1.64544 -14.942073,-0.706832 -21.110793,1.486873 -5.54506,1.971921 -10.20177,5.406663 -12.98488,7.992941 -12.30958,10.824104 -16.33594,29.969334 -7.48065,46.744194 12.42145,21.83197 30.90213,20.11107 52.856715,19.77879 22.080735,-10.28017 -0.229098,-16.22785 -5.25698,-28.29397 -4.465882,6.05182 -13.060655,8.6045 -19.218935,6.25374 -4.20591,-1.6055 -10.99697,-5.77709 -11.97122,-16.37758 0.48903,-7.64972 4.08356,-12.22207 8.6552,-14.88355 4.28318,-2.49354 12.440819,-4.15905 19.418476,1.47637 z"
           id="path9676"
           sodipodi:nodetypes="ccssccccscsc" />
        <path
           style="fill:url(#linearGradient9620);fill-opacity:1;stroke:none;stroke-width:3;stroke-dasharray:none;stroke-opacity:1;stop-color:#000000"
           d="m -105.07384,85.169776 c 9.521822,6.81332 -0.15023,8.185137 0.43248,21.375094 -8.98606,2.39659 -12.49759,9.27266 -13.24294,14.83936 -0.36718,2.74224 0.14955,5.03109 0.58851,6.58148 1.60664,5.6747 6.21045,10.60326 12.34301,12.11393 4.43473,1.09243 9.519035,0.48588 14.081307,-2.63829 -3.950662,10.16041 20.164409,21.01723 -7.817749,24.32604 -11.679728,0.87971 -27.821688,-5.05004 -35.758118,-19.77879 -2.75957,-5.12132 -4.60059,-11.47268 -4.77,-18.63902 -0.6029,-17.05641 13.03217,-35.973145 34.1435,-38.179804 z"
           id="path8562"
           sodipodi:nodetypes="ccsssccscc" />
        <path
           style="fill:url(#linearGradient8506);fill-opacity:1;stroke:none;stroke-width:3;stroke-dasharray:none;stroke-opacity:1;stop-color:#000000"
           d="m -123.38575,92.271936 c 13.4646,-3.463828 8.12812,11.425784 10.30454,18.981374 -10.38243,11.0108 -2.8361,26.38592 8.19501,28.84259 14.334121,14.80459 -6.78766,12.65201 -11.02625,18.574 -28.01565,-12.41075 -31.21876,-48.853 -7.4733,-66.397964 z"
           id="path8498"
           sodipodi:nodetypes="ccccc" />
        <path
           style="fill:url(#linearGradient8442);fill-opacity:1;stroke:none;stroke-width:3;stroke-dasharray:none;stroke-opacity:1;stop-color:#000000"
           d="m -133.05958,102.48727 c 21.92114,10.98207 7.92434,30.2529 4.23885,47.14419 -11.53294,-12.10024 -14.36453,-31.36504 -4.23885,-47.14419 z"
           id="path7508"
           sodipodi:nodetypes="ccc" />
      </g>
    </g>
  </g>
</svg>
